<?xml version="1.0" encoding="UTF-8"?>
<svg id="Layer_2" data-name="Layer 2" xmlns="http://www.w3.org/2000/svg" viewBox="0 0 33.5 33.94">
  <defs>
    <style>
      .cls-1 {
        fill: #fff;
      }

      .cls-2 {
        fill: #e64097;
      }
    </style>
  </defs>
  <g id="Layer_1-2" data-name="Layer 1">
    <g>
      <rect class="cls-2" width="33.5" height="33.94"/>
      <path class="cls-1" d="M29.9,12.96c.16-.01,1.47-.15,1.3.24-.11.28-.86.14-1.34.17-1.55.1-3.12.38-4.52.66-6.31,1.26-12.12,2.89-16.58,4.14-.11,3.21-.25,6.29-.27,9.71,0,.52-.02,1.15.01,1.68.03.44.18,1.1-.32,1.16-.18-.17-.11-.46-.12-.68-.13-1.71-.06-3.64.02-5.47.09-2.07.08-4.19.21-6.24-.81.16-1.58.44-2.49.66.02,1.38-.12,2.88-.08,4.28,0,.2.14.58-.05.69-.46.25-.45-.62-.45-.96,0-1.36.08-2.57.08-3.84-.71.07-1.69.37-2.43.43-.24.02-.69,0-.67-.29.02-.27.52-.21.75-.22.76-.04,1.65-.27,2.33-.4.02-1.15.03-2.24.02-3.37-.01-1.23-.06-1.76-.1-2.66-.09-1.81-.03-4.07-.27-5.88-.03-.24-.17-.5-.05-.73.15-.03.28-.05.37.01.2.13.22,1.18.25,1.55.05.55.07,1.06.08,1.44.03,1.29.06,1.95.11,2.9.12,2.48.12,4.45.12,6.57.81-.12,1.72-.47,2.49-.63.3-4.18.53-8.67.62-12.9.01-.57-.01-1.16.13-1.69.07-.05.23-.02.34-.04.16.26.07.57.06.85-.1,1.94-.1,4.25-.23,6.24-.17,2.52-.22,5.05-.41,7.34,3.58-.93,7.19-1.93,11.06-2.86,2.79-.66,5.66-1.34,8.54-1.71.49-.06.92-.11,1.51-.15Z"/>
    </g>
  </g>
</svg>