<?xml version="1.0" encoding="UTF-8"?>
<svg id="Layer_2" data-name="Layer 2" xmlns="http://www.w3.org/2000/svg" xmlns:xlink="http://www.w3.org/1999/xlink" viewBox="0 0 539.05 507.65">
  <defs>
    <style>
      .cls-1 {
        fill: url(#linear-gradient);
      }

      .cls-2 {
        fill: #fff;
      }

      .cls-3 {
        fill: #e64097;
      }
    </style>
    <linearGradient id="linear-gradient" x1="0" y1="405.98" x2="435.89" y2="405.98" gradientUnits="userSpaceOnUse">
      <stop offset="0" stop-color="#fff"/>
      <stop offset=".08" stop-color="#fce5f0"/>
      <stop offset=".23" stop-color="#f6b9d7"/>
      <stop offset=".39" stop-color="#f294c2"/>
      <stop offset=".54" stop-color="#ef77b2"/>
      <stop offset=".7" stop-color="#ec63a7"/>
      <stop offset=".85" stop-color="#eb57a0"/>
      <stop offset="1" stop-color="#eb539e"/>
    </linearGradient>
  </defs>
  <g id="Layer_1-2" data-name="Layer 1">
    <g>
      <rect class="cls-1" y="393.87" width="435.89" height="24.22"/>
      <g>
        <path class="cls-2" d="M198.42,404.07c-1.34-.78-2.48-1.13-3.74-1.13-2.48,0-4.32,1.76-4.32,4.15s1.78,4.12,4.39,4.12c1.22,0,2.56-.43,3.78-1.22v1.7c-1.07.56-2.23.95-3.93.95-4.07,0-5.85-3.13-5.85-5.4,0-3.31,2.5-5.72,5.95-5.72,1.11,0,2.24.27,3.72.89v1.67Z"/>
        <path class="cls-2" d="M212.12,401.51c3.58,0,5.83,2.54,5.83,5.56s-2.19,5.56-5.87,5.56-5.79-2.62-5.79-5.56,2.31-5.56,5.82-5.56ZM212.12,411.21c2.43,0,4.23-1.76,4.23-4.13s-1.8-4.13-4.23-4.13-4.21,1.75-4.21,4.13,1.8,4.13,4.21,4.13Z"/>
        <path class="cls-2" d="M236.49,412.49h-1.34l-7.25-8.35v8.35h-1.46v-10.84h1.24l7.35,8.39v-8.39h1.46v10.84Z"/>
        <path class="cls-2" d="M250.77,404.04c-.92-.88-1.81-1.13-2.54-1.13-1,0-1.72.52-1.72,1.29,0,2.08,4.69,2.05,4.69,5.5,0,1.7-1.29,2.94-3.04,2.94-1.18,0-2.13-.32-3.04-1v-1.97c.79,1.02,1.8,1.57,2.86,1.57,1.21,0,1.76-.76,1.76-1.37,0-2.24-4.69-2.5-4.69-5.47,0-1.76,1.3-2.89,3.29-2.89.83,0,1.65.26,2.42.76v1.77Z"/>
        <path class="cls-2" d="M268.74,408.23c0,2.66-1.59,4.4-4.82,4.4-2.29,0-4.52-1.29-4.52-4.24v-6.74h1.56v6.41c0,1.22.16,1.73.65,2.23.62.62,1.4.92,2.34.92,1.19,0,2.05-.38,2.54-.87.56-.56.68-1.35.68-2.37v-6.31h1.56v6.58Z"/>
        <path class="cls-2" d="M279.19,411.1h4.9v1.4h-6.45v-10.84h1.56v9.44Z"/>
        <path class="cls-2" d="M298.73,403.05h-3.75v9.44h-1.56v-9.44h-3.75v-1.4h9.06v1.4Z"/>
        <path class="cls-2" d="M314.82,412.49h-1.59l-1.45-3.2h-4.61l-1.37,3.2h-1.59l4.66-10.91h1.1l4.85,10.91ZM307.77,407.9h3.37l-1.75-3.93-1.62,3.93Z"/>
        <path class="cls-2" d="M332.64,412.49h-1.34l-7.25-8.35v8.35h-1.46v-10.84h1.24l7.34,8.39v-8.39h1.46v10.84Z"/>
        <path class="cls-2" d="M350.8,404.07c-1.34-.78-2.48-1.13-3.74-1.13-2.48,0-4.32,1.76-4.32,4.15s1.78,4.12,4.39,4.12c1.22,0,2.56-.43,3.78-1.22v1.7c-1.06.56-2.22.95-3.93.95-4.07,0-5.85-3.13-5.85-5.4,0-3.31,2.49-5.72,5.95-5.72,1.11,0,2.24.27,3.72.89v1.67Z"/>
        <path class="cls-2" d="M365.93,401.65h1.88l-4.02,5.12v5.72h-1.56v-5.74l-4.02-5.1h1.87l2.91,3.74,2.94-3.74Z"/>
        <path class="cls-2" d="M387.68,411.1h4.9v1.4h-6.45v-10.84h1.56v9.44Z"/>
        <path class="cls-2" d="M407.21,403.05h-3.75v9.44h-1.56v-9.44h-3.75v-1.4h9.06v1.4Z"/>
        <path class="cls-2" d="M415.14,401.65h4.21c4.01,0,5.77,2.86,5.77,5.42,0,2.78-2.18,5.42-5.76,5.42h-4.23v-10.84ZM416.7,411.1h2.48c3.53,0,4.34-2.69,4.34-4.02,0-2.18-1.38-4.02-4.42-4.02h-2.4v8.05Z"/>
      </g>
      <g>
        <path class="cls-3" d="M301.16,369.81c2.33,1.48,4.67,2.52,4.23,5.81-.69,5.1-8.66,4.02-11.94,2.65-3.96-1.65-9.12-4.44-13.62-3.33-.73.19-1.44.46-2.14.88-2.89,1.73-4.14,7.58-9.21,2.48-1.06-1.06-.67-3.37-1.15-4.14-1.94-3.19-7.54-4.64-10.87-7.91-5.77-5.67-13.71-18-11.23-31.54,1.25-6.94,6.92-9.83,12.64-12.77,8.64-4.48,10.39-7,11.1-16.73,1.62-21.98,1.21-29.66,2.56-51.66,2.15-1.56,6.1-1.44,8.52.38,1.75,3.96.04,8.31-.38,12.39-3.37,33.08-4.02,56.11-2.25,85.67.17,2.89-.12,14.48,1.85,16.21,1.42,1.27,5.02.42,6.67.29,3.02-.25,5.77.87,8.62.62,3.23-.31,3.85-1.08,6.62.69ZM266.37,364.4c1.98-10,2.17-24.52-.48-36.74-17.89,2.23-11,31.18.48,36.74Z"/>
        <path class="cls-2" d="M265.89,327.67c2.65,12.21,2.46,26.74.48,36.74-11.48-5.56-18.37-34.51-.48-36.74Z"/>
      </g>
      <g>
        <path class="cls-3" d="M514.49,179.54c3.04-.21,27.05-2.85,24.06,4.51-2.1,5.19-15.93,2.61-24.67,3.18-28.57,1.86-57.57,6.94-83.4,12.13-116.38,23.31-223.68,53.34-305.99,76.34-1.96,59.16-4.63,116.11-5.04,179.18-.07,9.64-.36,21.19.26,31.08.49,8.06,3.37,20.27-5.97,21.44-3.31-3.07-1.95-8.4-2.27-12.54-2.4-31.5-1.17-67.18.29-100.99,1.64-38.17,1.46-77.32,3.82-115.12-15,2.97-29.2,8.1-45.99,12.09.37,25.45-2.19,53.16-1.56,78.95.08,3.76,2.6,10.77-.88,12.66-8.55,4.66-8.32-11.4-8.33-17.73-.03-25.09,1.45-47.38,1.42-70.83-13.11,1.22-31.28,6.92-44.79,7.99-4.35.33-12.72.08-12.38-5.4.3-4.97,9.57-3.87,13.83-4.12,14.1-.83,30.39-4.99,43-7.47.43-21.23.58-41.37.38-62.24-.21-22.73-1.02-32.47-1.83-49.08-1.62-33.35-.51-75.1-4.95-108.46-.6-4.47-3.1-9.15-.95-13.5,2.69-.57,5.08-.92,6.77.2,3.68,2.44,4.08,21.8,4.68,28.69.89,10.19,1.27,19.5,1.44,26.54.52,23.89,1.16,36,2,53.58,2.18,45.68,2.22,82.05,2.27,121.19,15.03-2.27,31.74-8.59,46-11.64,5.58-77.19,9.87-159.95,11.39-238.02.21-10.61-.25-21.34,2.44-31.21,1.32-.95,4.25-.4,6.29-.69,2.96,4.72,1.31,10.48,1.04,15.75-1.88,35.76-1.77,78.38-4.27,115.12-3.13,46.46-4.1,93.13-7.55,135.54,66.09-17.24,132.69-35.64,204.07-52.7,51.39-12.26,104.43-24.72,157.52-31.57,9.13-1.19,16.89-2.12,27.86-2.84Z"/>
        <path class="cls-3" d="M366.85,258.29c3.86,2.79,4.02,10.54,4.23,16.53,1.12,31.93-9.15,66.95,2.46,102.26-.43.02-.34.56-.42.92-12.63,5.53-13.92-16.88-14.61-28.77-5.18,7.35-6.83,24.42-18.94,23.71-5.93-.36-8.03-5.23-11.61-9.04-2.04-2.16-12.97,8-14.42,9.05-4.5,3.25-10.25,7.26-16.11,6.52-2.32-.31-6.07-2.61-5.64-6.1.65-5.27,10.44-4.67,13.64-8.63-10.2-4.83-19.01-11.37-20.76-24.92-.82-6.32.56-12.8,2.87-18.68,1.67-4.22,4.93-10.45,9.93-6.4,5.21,4.22-2.18,13.63-2.66,18.84-.26,2.66-.2,5.31.35,7.94,1.12,5.31,3.27,8.54,7.89,11.49,2.2,1.42,4.59,2.54,7.03,3.48,1.3.5,2.59.92,3.92,1.32.72.22,3.15,1.33,3.84,1.06,2.48-1.03,4.32-2.66,5.69-4.72-2.36-14.91-5.18-31.55,10.59-30.6,4.37.27,9.95,3.8,10.66,7.72.81,4.5-2.27,10.16-3.98,14.11-2.63,6.06-9.31,14.44-.66,18.52,5.04-4.94,7.9-12.89,10.94-20.71,2.87-7.32,6.62-15.6,7.68-23.72.72-5.46.6-11.6.71-17.17.3-14.69.42-29.13-.23-42.37,2.45-1.39,4.28-2.75,7.61-1.64ZM332.1,341.64c2.35-1.91,2.91-5.71,1.93-8.62-1.9,2.4-1.76,4.63-1.93,8.62Z"/>
        <path class="cls-2" d="M334.03,333.02c.97,2.91.42,6.71-1.93,8.62.17-3.99.03-6.22,1.93-8.62Z"/>
        <path class="cls-3" d="M246.57,369.89c2.31,4.05-.34,7.89-3.75,8.26-12.58,1.32-14.13-27.17-14.12-40.05-4.84,7.75-11.72,19.4-13.3,29.8-.24,1.53.75,3.56.18,4.95-1.22,2.94-4.61,3.46-7.06,4.32-7.98-1.94-5.31-15.27-6.65-20.95-5.85,5.88-4.48,19.45-12.71,22.12-13.94,4.54-17.81-16.32-21.31-27.62-5.54,8.7-7.81,17.81-13.91,26.21-4.06,5.62-14.45,7.12-16.37-3.43-1.71-9.46.31-28.48.79-39.25.31-6.76,1.43-13.17,6.65-15.15,5-1.86,14.77-1.64,15.07,4.87-1.87,3.17-5.3,1.93-8.09.75-3.45,1.67-3.98,7.16-4.52,11.9-1.14,10.29-1.4,24.39-.59,32.48,8.02-10.82,13.99-23.54,17.51-38.52,2.77-3.94,9.37-4.3,10.84.95-.49,12.99,3.37,28.23,9.5,37.06,4.33-3.45,5.43-9.58,7.57-14.72,2.74-6.57,6.17-11.81,7.84-19.67,2.24-2.81,6.58-3.52,9.84-2.17,3.3,4.74.62,10.46,1.92,15.25,3.33-4.37,7.25-14.61,11.85-20.27,3-3.66,9.38-6.91,13.43-2.76,3.59,16.05-.31,27.54,5.68,43.52.9,1.06,2.95.87,3.69,2.12Z"/>
      </g>
    </g>
  </g>
</svg>